<svg xmlns="http://www.w3.org/2000/svg" width="1600" height="900" viewBox="0 0 1600 900">
  <rect width="1600" height="900" fill="#f8fafc"/>
  <rect x="0" y="0" width="1600" height="900" fill="url(#g)"/>
  <circle cx="300" cy="260" r="140" fill="#f59e0b" opacity="0.16"/>
  <circle cx="1240" cy="280" r="160" fill="#3b82f6" opacity="0.14"/>
  <rect x="160" y="190" width="1280" height="520" rx="36" fill="#ffffff" opacity="0.82"/>
  <rect x="250" y="560" width="220" height="110" rx="24" fill="#34d399"/>
  <rect x="520" y="540" width="240" height="130" rx="24" fill="#0f766e"/>
  <rect x="820" y="560" width="220" height="110" rx="24" fill="#3b82f6"/>
  <circle cx="340" cy="360" r="82" fill="#0f766e"/>
  <rect x="275" y="440" width="130" height="120" rx="24" fill="#f59e0b"/>
  <circle cx="620" cy="370" r="90" fill="#2563eb"/>
  <rect x="550" y="455" width="140" height="90" rx="20" fill="#fbbf24"/>
  <circle cx="930" cy="360" r="82" fill="#14532d"/>
  <rect x="865" y="440" width="130" height="120" rx="24" fill="#60a5fa"/>
  <path d="M310 410 L360 370 L430 410" stroke="#fff" stroke-width="18" fill="none" stroke-linecap="round"/>
  <path d="M570 420 L635 375 L700 420" stroke="#fff" stroke-width="18" fill="none" stroke-linecap="round"/>
  <path d="M875 410 L930 375 L985 410" stroke="#fff" stroke-width="18" fill="none" stroke-linecap="round"/>
  <path d="M300 690 C430 610 650 600 820 680 C970 750 1220 760 1380 690" stroke="#16a34a" stroke-width="26" fill="none" stroke-linecap="round"/>
  <defs><linearGradient id="g" x1="0%" y1="0%" x2="100%" y2="100%"><stop offset="0%" stop-color="#ecfdf5"/><stop offset="100%" stop-color="#eff6ff"/></linearGradient></defs>
</svg>