<svg xmlns="http://www.w3.org/2000/svg" width="1600" height="900" viewBox="0 0 1600 900">
  <rect width="1600" height="900" fill="#f8fafc"/>
  <rect x="0" y="0" width="1600" height="900" fill="url(#g)"/>
  <rect x="200" y="200" width="1200" height="480" rx="36" fill="#ffffff" opacity="0.82"/>
  <rect x="280" y="260" width="330" height="260" rx="26" fill="#2563eb"/>
  <rect x="650" y="280" width="300" height="220" rx="24" fill="#14b8a6"/>
  <rect x="980" y="260" width="250" height="260" rx="26" fill="#f59e0b"/>
  <path d="M340 240 L465 180 L590 240" stroke="#0f172a" stroke-width="18" fill="none" stroke-linecap="round"/>
  <path d="M370 240 L370 500" stroke="#dbeafe" stroke-width="16"/>
  <circle cx="395" cy="360" r="62" fill="#fff"/>
  <rect x="355" y="430" width="80" height="70" rx="12" fill="#fde68a"/>
  <circle cx="820" cy="365" r="66" fill="#fff"/>
  <rect x="775" y="430" width="90" height="70" rx="14" fill="#fef3c7"/>
  <circle cx="1100" cy="360" r="64" fill="#fff7ed"/>
  <rect x="1060" y="430" width="80" height="65" rx="12" fill="#fff"/>
  <path d="M280 700 C500 620 1030 620 1320 720" stroke="#34d399" stroke-width="24" fill="none" stroke-linecap="round"/>
  <path d="M780 520 L860 470 L930 520" stroke="#fff" stroke-width="16" fill="none" stroke-linecap="round"/>
  <defs><linearGradient id="g" x1="0%" y1="0%" x2="100%" y2="100%"><stop offset="0%" stop-color="#eff6ff"/><stop offset="100%" stop-color="#ecfdf5"/></linearGradient></defs>
</svg>