<svg xmlns="http://www.w3.org/2000/svg" width="1600" height="900" viewBox="0 0 1600 900">
  <rect width="1600" height="900" fill="#f8fafc"/>
  <rect x="0" y="0" width="1600" height="900" fill="url(#g)"/>
  <rect x="170" y="180" width="1260" height="520" rx="36" fill="#ffffff" opacity="0.84"/>
  <circle cx="420" cy="330" r="92" fill="#fda4af"/>
  <rect x="330" y="410" width="180" height="140" rx="24" fill="#ef4444"/>
  <circle cx="980" cy="330" r="96" fill="#a7f3d0"/>
  <rect x="900" y="410" width="180" height="140" rx="24" fill="#0f766e"/>
  <path d="M400 450 L400 520" stroke="#fff" stroke-width="20" stroke-linecap="round"/>
  <path d="M360 485 L440 485" stroke="#fff" stroke-width="20" stroke-linecap="round"/>
  <path d="M970 450 L970 520" stroke="#fff" stroke-width="20" stroke-linecap="round"/>
  <path d="M930 485 L1010 485" stroke="#fff" stroke-width="20" stroke-linecap="round"/>
  <path d="M650 360 C710 300 800 290 860 340" stroke="#2563eb" stroke-width="24" fill="none" stroke-linecap="round"/>
  <path d="M620 530 C730 470 850 470 960 530" stroke="#22c55e" stroke-width="18" fill="none" stroke-linecap="round"/>
  <path d="M260 720 C450 640 870 640 1310 720" stroke="#38bdf8" stroke-width="24" fill="none" stroke-linecap="round"/>
  <defs><linearGradient id="g" x1="0%" y1="0%" x2="100%" y2="100%"><stop offset="0%" stop-color="#fef2f2"/><stop offset="100%" stop-color="#eff6ff"/></linearGradient></defs>
</svg>